<svg width="1024" height="1024" viewBox="0 0 1024 1024" fill="none" xmlns="http://www.w3.org/2000/svg">
<g clip-path="url(#clip0_406_315)">
<path fill-rule="evenodd" clip-rule="evenodd" d="M1024 512C1024 229.23 794.77 0 512 0C229.23 0 0 229.23 0 512C0 794.77 229.23 1024 512 1024H756.506C850.138 1024 896.954 1024 932.716 1005.78C964.174 989.75 989.75 964.174 1005.78 932.716C1024 896.954 1024 850.138 1024 756.506V512Z" fill="#5C5BFD"/>
<path d="M627.369 715.8C655.167 700.716 665.473 665.954 650.39 638.156L475.435 315.731C460.351 287.933 425.589 277.626 397.791 292.71V292.71C369.994 307.793 359.687 342.556 374.77 370.353L549.725 692.779C564.809 720.576 599.571 730.883 627.369 715.8V715.8Z" fill="white"/>
<path d="M223.787 713.307C195.99 698.224 185.683 663.462 200.766 635.664L374.274 315.906C389.357 288.108 424.12 277.801 451.917 292.885V292.885C479.715 307.969 490.022 342.731 474.938 370.529L301.431 690.287C286.348 718.084 251.585 728.391 223.787 713.307V713.307Z" fill="white"/>
<path d="M796.265 715.643C824.063 700.56 834.37 665.797 819.286 638L643.854 314.694C628.77 286.897 594.008 276.59 566.21 291.673V291.673C538.413 306.757 528.106 341.519 543.189 369.317L718.622 692.623C733.705 720.42 768.467 730.727 796.265 715.643V715.643Z" fill="white"/>
<path d="M191.387 666.491C191.387 634.865 217.025 609.227 248.652 609.227H422.491C454.118 609.227 479.756 634.865 479.756 666.491V666.491C479.756 698.118 454.118 723.756 422.491 723.756H248.651C217.025 723.756 191.387 698.118 191.387 666.491V666.491Z" fill="white"/>
<path d="M959.212 858.908C959.212 910.845 917.109 952.949 865.172 952.949C813.234 952.949 771.131 910.845 771.131 858.908C771.131 806.971 813.234 764.867 865.172 764.867C917.109 764.867 959.212 806.971 959.212 858.908Z" fill="white"/>
</g>
<defs>
<clipPath id="clip0_406_315">
<rect width="1024" height="1024" fill="white"/>
</clipPath>
</defs>
</svg>
